<mxfile host="app.diagrams.net" agent="Mozilla/5.0 (Windows NT 10.0; Win64; x64) AppleWebKit/537.36 (KHTML, like Gecko) Chrome/129.0.0.0 Safari/537.36" version="24.7.17">
  <diagram name="第 1 页" id="wpNkXeBpxS5qz1ylQGOW">
    <mxGraphModel dx="563" dy="293" grid="1" gridSize="10" guides="1" tooltips="1" connect="1" arrows="1" fold="1" page="1" pageScale="1" pageWidth="827" pageHeight="1169" math="0" shadow="0">
      <root>
        <mxCell id="0" />
        <mxCell id="1" parent="0" />
        <mxCell id="82lbI5ZRumD_5hzKoDGn-1" style="rounded=0;orthogonalLoop=1;jettySize=auto;html=1;endArrow=block;endFill=1;startArrow=none;startFill=0;fontFamily=Times New Roman;" parent="1" edge="1" target="82lbI5ZRumD_5hzKoDGn-4">
          <mxGeometry relative="1" as="geometry">
            <mxPoint x="339" y="150" as="sourcePoint" />
          </mxGeometry>
        </mxCell>
        <mxCell id="82lbI5ZRumD_5hzKoDGn-4" value="&lt;font style=&quot;font-size: 14px;&quot;&gt;Layer&lt;/font&gt;&lt;div style=&quot;font-size: 14px;&quot;&gt;&lt;font style=&quot;font-size: 14px;&quot;&gt;N&lt;/font&gt;&lt;/div&gt;" style="ellipse;whiteSpace=wrap;html=1;aspect=fixed;fontFamily=Times New Roman;" parent="1" vertex="1">
          <mxGeometry x="379" y="125" width="50" height="50" as="geometry" />
        </mxCell>
        <mxCell id="82lbI5ZRumD_5hzKoDGn-5" value="&lt;font style=&quot;&quot;&gt;&lt;span style=&quot;font-size: 14px;&quot;&gt;A&lt;/span&gt;&lt;sub style=&quot;&quot;&gt;&lt;font style=&quot;font-size: 10px;&quot;&gt;N&lt;/font&gt;&lt;/sub&gt;&lt;/font&gt;" style="text;html=1;align=center;verticalAlign=middle;whiteSpace=wrap;rounded=0;fontFamily=Times New Roman;" parent="1" vertex="1">
          <mxGeometry x="315" y="135" width="25" height="30" as="geometry" />
        </mxCell>
        <mxCell id="82lbI5ZRumD_5hzKoDGn-11" style="edgeStyle=orthogonalEdgeStyle;rounded=0;orthogonalLoop=1;jettySize=auto;html=1;entryX=0;entryY=0.5;entryDx=0;entryDy=0;endArrow=block;endFill=1;exitX=1;exitY=0.5;exitDx=0;exitDy=0;fontFamily=Times New Roman;" parent="1" source="82lbI5ZRumD_5hzKoDGn-12" target="82lbI5ZRumD_5hzKoDGn-13" edge="1">
          <mxGeometry relative="1" as="geometry" />
        </mxCell>
        <mxCell id="82lbI5ZRumD_5hzKoDGn-12" value="&lt;font style=&quot;font-size: 14px;&quot;&gt;Host&lt;/font&gt;" style="rounded=0;whiteSpace=wrap;html=1;fontFamily=Times New Roman;" parent="1" vertex="1">
          <mxGeometry x="309" y="215" width="70" height="20" as="geometry" />
        </mxCell>
        <mxCell id="82lbI5ZRumD_5hzKoDGn-13" value="&lt;font style=&quot;font-size: 14px;&quot;&gt;Remote&lt;/font&gt;" style="rounded=0;whiteSpace=wrap;html=1;fontFamily=Times New Roman;" parent="1" vertex="1">
          <mxGeometry x="445" y="215" width="70" height="20" as="geometry" />
        </mxCell>
        <mxCell id="82lbI5ZRumD_5hzKoDGn-18" value="&lt;font style=&quot;&quot;&gt;&lt;span style=&quot;font-size: 14px; color: rgb(0, 0, 0); font-style: normal; font-variant-ligatures: normal; font-variant-caps: normal; font-weight: 400; letter-spacing: normal; orphans: 2; text-align: center; text-indent: 0px; text-transform: none; widows: 2; word-spacing: 0px; -webkit-text-stroke-width: 0px; white-space: normal; background-color: rgb(251, 251, 251); text-decoration-thickness: initial; text-decoration-style: initial; text-decoration-color: initial; float: none; display: inline !important;&quot;&gt;A&lt;/span&gt;&lt;sub style=&quot;forced-color-adjust: none; color: rgb(0, 0, 0); font-style: normal; font-variant-ligatures: normal; font-variant-caps: normal; font-weight: 400; letter-spacing: normal; orphans: 2; text-align: center; text-indent: 0px; text-transform: none; widows: 2; word-spacing: 0px; -webkit-text-stroke-width: 0px; white-space: normal; background-color: rgb(251, 251, 251); text-decoration-thickness: initial; text-decoration-style: initial; text-decoration-color: initial;&quot;&gt;&lt;font style=&quot;font-size: 10px;&quot;&gt;N+1&lt;/font&gt;&lt;/sub&gt;&lt;/font&gt;" style="text;whiteSpace=wrap;html=1;fontFamily=Times New Roman;" parent="1" vertex="1">
          <mxGeometry x="396" y="209" width="30" height="30" as="geometry" />
        </mxCell>
        <mxCell id="82lbI5ZRumD_5hzKoDGn-38" style="edgeStyle=orthogonalEdgeStyle;rounded=0;orthogonalLoop=1;jettySize=auto;html=1;endArrow=none;endFill=0;startArrow=block;startFill=1;fontFamily=Times New Roman;" parent="1" edge="1">
          <mxGeometry relative="1" as="geometry">
            <mxPoint x="404" y="110" as="targetPoint" />
            <mxPoint x="404" y="125" as="sourcePoint" />
          </mxGeometry>
        </mxCell>
        <mxCell id="82lbI5ZRumD_5hzKoDGn-39" value="&lt;font style=&quot;&quot;&gt;&lt;span style=&quot;font-size: 14px;&quot;&gt;W&lt;/span&gt;&lt;sub style=&quot;&quot;&gt;&lt;font style=&quot;font-size: 10px;&quot;&gt;N&lt;/font&gt;&lt;/sub&gt;&lt;/font&gt;" style="text;html=1;align=center;verticalAlign=middle;whiteSpace=wrap;rounded=0;fontFamily=Times New Roman;" parent="1" vertex="1">
          <mxGeometry x="374" y="90" width="60" height="30" as="geometry" />
        </mxCell>
        <mxCell id="82lbI5ZRumD_5hzKoDGn-41" value="&lt;font style=&quot;font-size: 14px;&quot;&gt;Layer N+1&lt;/font&gt;" style="ellipse;whiteSpace=wrap;html=1;aspect=fixed;fontFamily=Times New Roman;" parent="1" vertex="1">
          <mxGeometry x="609" y="125" width="50" height="50" as="geometry" />
        </mxCell>
        <mxCell id="82lbI5ZRumD_5hzKoDGn-42" value="&lt;font style=&quot;&quot;&gt;&lt;span style=&quot;font-size: 14px;&quot;&gt;A&lt;/span&gt;&lt;sub style=&quot;&quot;&gt;&lt;font style=&quot;font-size: 10px;&quot;&gt;N+1&lt;/font&gt;&lt;/sub&gt;&lt;/font&gt;" style="text;html=1;align=center;verticalAlign=middle;whiteSpace=wrap;rounded=0;fillColor=default;fontFamily=Times New Roman;" parent="1" vertex="1">
          <mxGeometry x="469.5" y="135" width="25" height="30" as="geometry" />
        </mxCell>
        <mxCell id="82lbI5ZRumD_5hzKoDGn-43" style="edgeStyle=orthogonalEdgeStyle;rounded=0;orthogonalLoop=1;jettySize=auto;html=1;endArrow=none;endFill=0;startArrow=block;startFill=1;fontFamily=Times New Roman;" parent="1" edge="1">
          <mxGeometry relative="1" as="geometry">
            <mxPoint x="615" y="118" as="targetPoint" />
            <mxPoint x="615" y="133" as="sourcePoint" />
          </mxGeometry>
        </mxCell>
        <mxCell id="82lbI5ZRumD_5hzKoDGn-44" value="&lt;font style=&quot;&quot;&gt;&lt;span style=&quot;font-size: 14px;&quot;&gt;A&lt;/span&gt;&lt;sub style=&quot;&quot;&gt;&lt;font style=&quot;font-size: 10px;&quot;&gt;N&lt;/font&gt;&lt;/sub&gt;&lt;/font&gt;" style="text;html=1;align=center;verticalAlign=middle;whiteSpace=wrap;rounded=0;fontFamily=Times New Roman;" parent="1" vertex="1">
          <mxGeometry x="585" y="98" width="60" height="30" as="geometry" />
        </mxCell>
        <mxCell id="82lbI5ZRumD_5hzKoDGn-45" style="edgeStyle=orthogonalEdgeStyle;rounded=0;orthogonalLoop=1;jettySize=auto;html=1;endArrow=none;endFill=0;startArrow=block;startFill=1;fontFamily=Times New Roman;" parent="1" edge="1">
          <mxGeometry relative="1" as="geometry">
            <mxPoint x="653" y="118" as="targetPoint" />
            <mxPoint x="653" y="133" as="sourcePoint" />
          </mxGeometry>
        </mxCell>
        <mxCell id="82lbI5ZRumD_5hzKoDGn-46" value="&lt;font style=&quot;&quot;&gt;&lt;span style=&quot;font-size: 14px;&quot;&gt;W&lt;/span&gt;&lt;sub style=&quot;&quot;&gt;&lt;font style=&quot;font-size: 10px;&quot;&gt;N+1&lt;/font&gt;&lt;/sub&gt;&lt;/font&gt;" style="text;html=1;align=center;verticalAlign=middle;whiteSpace=wrap;rounded=0;fontFamily=Times New Roman;" parent="1" vertex="1">
          <mxGeometry x="623" y="98" width="60" height="30" as="geometry" />
        </mxCell>
        <mxCell id="82lbI5ZRumD_5hzKoDGn-47" style="rounded=0;orthogonalLoop=1;jettySize=auto;html=1;endArrow=block;endFill=1;startArrow=none;startFill=0;fontFamily=Times New Roman;" parent="1" edge="1">
          <mxGeometry relative="1" as="geometry">
            <mxPoint x="699" y="149.75" as="targetPoint" />
            <mxPoint x="659" y="149.75" as="sourcePoint" />
          </mxGeometry>
        </mxCell>
        <mxCell id="82lbI5ZRumD_5hzKoDGn-48" value="&lt;font style=&quot;&quot;&gt;&lt;span style=&quot;font-size: 14px;&quot;&gt;G&lt;/span&gt;&lt;sub style=&quot;&quot;&gt;&lt;font style=&quot;font-size: 10px;&quot;&gt;N&lt;/font&gt;&lt;/sub&gt;&lt;/font&gt;" style="text;html=1;align=center;verticalAlign=middle;whiteSpace=wrap;rounded=0;fontFamily=Times New Roman;" parent="1" vertex="1">
          <mxGeometry x="698.5" y="135" width="25" height="30" as="geometry" />
        </mxCell>
        <mxCell id="Cfb4ADx89YXNpnE45n3d-1" value="&lt;span style=&quot;font-size: 16px;&quot;&gt;&lt;b&gt;Checkpoint&lt;/b&gt;&lt;/span&gt;" style="text;html=1;align=center;verticalAlign=middle;whiteSpace=wrap;rounded=0;fontFamily=Times New Roman;" parent="1" vertex="1">
          <mxGeometry x="220" y="244" width="89" height="30" as="geometry" />
        </mxCell>
        <mxCell id="9WqV83kx3IFAbvHzlayn-1" value="&lt;span style=&quot;font-size: 16px;&quot;&gt;&lt;b&gt;Network&lt;/b&gt;&lt;/span&gt;" style="text;html=1;align=center;verticalAlign=middle;whiteSpace=wrap;rounded=0;fontFamily=Times New Roman;" parent="1" vertex="1">
          <mxGeometry x="229" y="209" width="80" height="30" as="geometry" />
        </mxCell>
        <mxCell id="9WqV83kx3IFAbvHzlayn-2" value="" style="endArrow=none;html=1;rounded=0;dashed=1;strokeWidth=2;" parent="1" edge="1">
          <mxGeometry width="50" height="50" relative="1" as="geometry">
            <mxPoint x="520" y="276" as="sourcePoint" />
            <mxPoint x="520" y="173" as="targetPoint" />
          </mxGeometry>
        </mxCell>
        <mxCell id="9WqV83kx3IFAbvHzlayn-3" style="edgeStyle=orthogonalEdgeStyle;rounded=0;orthogonalLoop=1;jettySize=auto;html=1;entryX=0;entryY=0.5;entryDx=0;entryDy=0;endArrow=block;endFill=1;exitX=1;exitY=0.5;exitDx=0;exitDy=0;fontFamily=Times New Roman;" parent="1" source="9WqV83kx3IFAbvHzlayn-4" target="9WqV83kx3IFAbvHzlayn-5" edge="1">
          <mxGeometry relative="1" as="geometry" />
        </mxCell>
        <mxCell id="hBra4YvV5Pk913t_0O-t-1" value="&lt;font style=&quot;&quot;&gt;&lt;span style=&quot;font-size: 14px; font-family: &amp;quot;Times New Roman&amp;quot;; text-wrap: wrap; background-color: rgb(251, 251, 251);&quot;&gt;G&lt;/span&gt;&lt;sub style=&quot;font-family: &amp;quot;Times New Roman&amp;quot;; text-wrap: wrap; background-color: rgb(251, 251, 251);&quot;&gt;&lt;font style=&quot;font-size: 10px;&quot;&gt;N+1&lt;/font&gt;&lt;/sub&gt;&lt;/font&gt;" style="edgeLabel;html=1;align=center;verticalAlign=middle;resizable=0;points=[];" parent="9WqV83kx3IFAbvHzlayn-3" vertex="1" connectable="0">
          <mxGeometry x="-0.2164" y="1" relative="1" as="geometry">
            <mxPoint x="5" as="offset" />
          </mxGeometry>
        </mxCell>
        <mxCell id="9WqV83kx3IFAbvHzlayn-4" value="&lt;font style=&quot;font-size: 14px;&quot;&gt;Remote&lt;/font&gt;" style="rounded=0;whiteSpace=wrap;html=1;fontFamily=Times New Roman;" parent="1" vertex="1">
          <mxGeometry x="525" y="215" width="70" height="20" as="geometry" />
        </mxCell>
        <mxCell id="9WqV83kx3IFAbvHzlayn-5" value="&lt;font style=&quot;font-size: 14px;&quot;&gt;Host&lt;/font&gt;" style="rounded=0;whiteSpace=wrap;html=1;fontFamily=Times New Roman;" parent="1" vertex="1">
          <mxGeometry x="661" y="215" width="70" height="20" as="geometry" />
        </mxCell>
        <mxCell id="hBra4YvV5Pk913t_0O-t-6" style="edgeStyle=orthogonalEdgeStyle;rounded=0;orthogonalLoop=1;jettySize=auto;html=1;entryX=0;entryY=0.5;entryDx=0;entryDy=0;endArrow=block;endFill=1;exitX=1;exitY=0.5;exitDx=0;exitDy=0;fontFamily=Times New Roman;" parent="1" source="hBra4YvV5Pk913t_0O-t-8" target="hBra4YvV5Pk913t_0O-t-9" edge="1">
          <mxGeometry relative="1" as="geometry" />
        </mxCell>
        <mxCell id="hBra4YvV5Pk913t_0O-t-8" value="&lt;font style=&quot;font-size: 14px;&quot;&gt;GPU&lt;/font&gt;" style="rounded=0;whiteSpace=wrap;html=1;fontFamily=Times New Roman;" parent="1" vertex="1">
          <mxGeometry x="525" y="249" width="70" height="20" as="geometry" />
        </mxCell>
        <mxCell id="hBra4YvV5Pk913t_0O-t-9" value="&lt;span style=&quot;font-size: 14px;&quot;&gt;NVM&lt;/span&gt;" style="rounded=0;whiteSpace=wrap;html=1;fontFamily=Times New Roman;fillColor=#E6E6E6;" parent="1" vertex="1">
          <mxGeometry x="661" y="249" width="70" height="20" as="geometry" />
        </mxCell>
        <mxCell id="hBra4YvV5Pk913t_0O-t-10" style="edgeStyle=orthogonalEdgeStyle;rounded=0;orthogonalLoop=1;jettySize=auto;html=1;entryX=0;entryY=0.5;entryDx=0;entryDy=0;endArrow=block;endFill=1;exitX=1;exitY=0.5;exitDx=0;exitDy=0;fontFamily=Times New Roman;" parent="1" source="hBra4YvV5Pk913t_0O-t-12" target="hBra4YvV5Pk913t_0O-t-13" edge="1">
          <mxGeometry relative="1" as="geometry" />
        </mxCell>
        <mxCell id="hBra4YvV5Pk913t_0O-t-12" value="&lt;font style=&quot;font-size: 14px;&quot;&gt;GPU&lt;/font&gt;" style="rounded=0;whiteSpace=wrap;html=1;fontFamily=Times New Roman;" parent="1" vertex="1">
          <mxGeometry x="308" y="249" width="70" height="20" as="geometry" />
        </mxCell>
        <mxCell id="hBra4YvV5Pk913t_0O-t-13" value="&lt;span style=&quot;font-size: 14px;&quot;&gt;NVM&lt;/span&gt;" style="rounded=0;whiteSpace=wrap;html=1;fontFamily=Times New Roman;fillColor=#E6E6E6;" parent="1" vertex="1">
          <mxGeometry x="444" y="249" width="70" height="20" as="geometry" />
        </mxCell>
        <mxCell id="46FaGzGUhxHe82L_dMfi-1" style="rounded=0;orthogonalLoop=1;jettySize=auto;html=1;endArrow=block;endFill=1;startArrow=none;startFill=0;fontFamily=Times New Roman;" edge="1" parent="1">
          <mxGeometry relative="1" as="geometry">
            <mxPoint x="469" y="149.88" as="targetPoint" />
            <mxPoint x="429" y="149.88" as="sourcePoint" />
          </mxGeometry>
        </mxCell>
        <mxCell id="46FaGzGUhxHe82L_dMfi-2" style="rounded=0;orthogonalLoop=1;jettySize=auto;html=1;endArrow=block;endFill=1;startArrow=none;startFill=0;fontFamily=Times New Roman;" edge="1" parent="1">
          <mxGeometry relative="1" as="geometry">
            <mxPoint x="609" y="149.88" as="targetPoint" />
            <mxPoint x="569" y="149.88" as="sourcePoint" />
          </mxGeometry>
        </mxCell>
        <mxCell id="46FaGzGUhxHe82L_dMfi-4" value="&lt;font style=&quot;&quot;&gt;&lt;span style=&quot;font-size: 14px;&quot;&gt;G&lt;/span&gt;&lt;sub style=&quot;&quot;&gt;&lt;font style=&quot;font-size: 10px;&quot;&gt;N+1&lt;/font&gt;&lt;/sub&gt;&lt;/font&gt;" style="text;html=1;align=center;verticalAlign=middle;whiteSpace=wrap;rounded=0;fontFamily=Times New Roman;" vertex="1" parent="1">
          <mxGeometry x="542" y="133" width="25" height="30" as="geometry" />
        </mxCell>
        <mxCell id="46FaGzGUhxHe82L_dMfi-5" value="&lt;span style=&quot;font-size: 16px;&quot;&gt;&lt;b&gt;Node&lt;/b&gt;&lt;/span&gt;&lt;div&gt;&lt;span style=&quot;font-size: 16px;&quot;&gt;&lt;b&gt;Communication&lt;/b&gt;&lt;/span&gt;&lt;/div&gt;" style="text;html=1;align=center;verticalAlign=middle;whiteSpace=wrap;rounded=0;fontFamily=Times New Roman;" vertex="1" parent="1">
          <mxGeometry x="478" y="98" width="80" height="30" as="geometry" />
        </mxCell>
        <mxCell id="46FaGzGUhxHe82L_dMfi-6" value="&lt;div style=&quot;text-align: center;&quot;&gt;&lt;span style=&quot;background-color: initial; font-size: 16px;&quot;&gt;&lt;b style=&quot;&quot;&gt;&lt;font face=&quot;Helvetica&quot;&gt;. . .&lt;/font&gt;&lt;/b&gt;&lt;/span&gt;&lt;/div&gt;" style="text;whiteSpace=wrap;html=1;" vertex="1" parent="1">
          <mxGeometry x="505" y="131" width="30" height="30" as="geometry" />
        </mxCell>
        <mxCell id="46FaGzGUhxHe82L_dMfi-7" value="&lt;span style=&quot;font-size: 16px;&quot;&gt;&lt;b&gt;Swap&lt;/b&gt;&lt;/span&gt;" style="text;html=1;align=center;verticalAlign=middle;whiteSpace=wrap;rounded=0;fontFamily=Times New Roman;" vertex="1" parent="1">
          <mxGeometry x="224.5" y="175" width="89" height="30" as="geometry" />
        </mxCell>
        <mxCell id="46FaGzGUhxHe82L_dMfi-9" value="&lt;font style=&quot;&quot;&gt;&lt;span style=&quot;font-style: normal; font-variant-ligatures: normal; font-variant-caps: normal; font-weight: 400; letter-spacing: normal; orphans: 2; text-align: center; text-indent: 0px; text-transform: none; widows: 2; word-spacing: 0px; -webkit-text-stroke-width: 0px; white-space: normal; background-color: rgb(251, 251, 251); text-decoration-thickness: initial; text-decoration-style: initial; text-decoration-color: initial; float: none; display: inline !important;&quot;&gt;&lt;span style=&quot;font-size: 14px; color: rgb(255, 0, 0);&quot;&gt;W&lt;/span&gt;&lt;sub style=&quot;&quot;&gt;&lt;font style=&quot;&quot;&gt;&lt;font style=&quot;font-size: 10px;&quot; color=&quot;#ff0000&quot;&gt;N&lt;/font&gt;&lt;/font&gt;&lt;/sub&gt;&lt;/span&gt;&lt;/font&gt;" style="text;whiteSpace=wrap;html=1;fontFamily=Times New Roman;" vertex="1" parent="1">
          <mxGeometry x="395" y="243" width="29" height="30" as="geometry" />
        </mxCell>
        <mxCell id="46FaGzGUhxHe82L_dMfi-10" value="&lt;span style=&quot;font-family: &amp;quot;Times New Roman&amp;quot;; text-wrap: wrap; background-color: initial; font-size: 14px; color: rgb(255, 0, 0);&quot;&gt;O&lt;/span&gt;&lt;span style=&quot;font-family: &amp;quot;Times New Roman&amp;quot;; font-size: 12px; text-wrap: wrap; background-color: initial; color: rgb(255, 0, 0);&quot;&gt;&lt;sub&gt;N&lt;/sub&gt;&lt;font style=&quot;font-size: 14px;&quot;&gt;.v2&lt;/font&gt;&lt;/span&gt;" style="edgeLabel;html=1;align=center;verticalAlign=middle;resizable=0;points=[];" vertex="1" connectable="0" parent="1">
          <mxGeometry x="626" y="259" as="geometry" />
        </mxCell>
        <mxCell id="46FaGzGUhxHe82L_dMfi-12" style="edgeStyle=orthogonalEdgeStyle;rounded=0;orthogonalLoop=1;jettySize=auto;html=1;entryX=0;entryY=0.5;entryDx=0;entryDy=0;endArrow=block;endFill=1;exitX=1;exitY=0.5;exitDx=0;exitDy=0;fontFamily=Times New Roman;" edge="1" parent="1" source="46FaGzGUhxHe82L_dMfi-13" target="46FaGzGUhxHe82L_dMfi-14">
          <mxGeometry relative="1" as="geometry" />
        </mxCell>
        <mxCell id="46FaGzGUhxHe82L_dMfi-13" value="&lt;font style=&quot;font-size: 14px;&quot;&gt;GPU&lt;/font&gt;" style="rounded=0;whiteSpace=wrap;html=1;fontFamily=Times New Roman;" vertex="1" parent="1">
          <mxGeometry x="309" y="181" width="70" height="20" as="geometry" />
        </mxCell>
        <mxCell id="46FaGzGUhxHe82L_dMfi-14" value="&lt;span style=&quot;font-size: 14px;&quot;&gt;Host&lt;/span&gt;" style="rounded=0;whiteSpace=wrap;html=1;fontFamily=Times New Roman;" vertex="1" parent="1">
          <mxGeometry x="445" y="181" width="70" height="20" as="geometry" />
        </mxCell>
        <mxCell id="46FaGzGUhxHe82L_dMfi-15" value="&lt;font style=&quot;&quot;&gt;&lt;span style=&quot;font-size: 14px; color: rgb(0, 0, 0); font-style: normal; font-variant-ligatures: normal; font-variant-caps: normal; font-weight: 400; letter-spacing: normal; orphans: 2; text-align: center; text-indent: 0px; text-transform: none; widows: 2; word-spacing: 0px; -webkit-text-stroke-width: 0px; white-space: normal; background-color: rgb(251, 251, 251); text-decoration-thickness: initial; text-decoration-style: initial; text-decoration-color: initial; float: none; display: inline !important;&quot;&gt;A&lt;/span&gt;&lt;sub style=&quot;forced-color-adjust: none; color: rgb(0, 0, 0); font-style: normal; font-variant-ligatures: normal; font-variant-caps: normal; font-weight: 400; letter-spacing: normal; orphans: 2; text-align: center; text-indent: 0px; text-transform: none; widows: 2; word-spacing: 0px; -webkit-text-stroke-width: 0px; white-space: normal; background-color: rgb(251, 251, 251); text-decoration-thickness: initial; text-decoration-style: initial; text-decoration-color: initial;&quot;&gt;&lt;font style=&quot;font-size: 10px;&quot;&gt;N+1&lt;/font&gt;&lt;/sub&gt;&lt;/font&gt;" style="text;whiteSpace=wrap;html=1;fontFamily=Times New Roman;" vertex="1" parent="1">
          <mxGeometry x="396" y="175" width="30" height="30" as="geometry" />
        </mxCell>
        <mxCell id="46FaGzGUhxHe82L_dMfi-16" style="edgeStyle=orthogonalEdgeStyle;rounded=0;orthogonalLoop=1;jettySize=auto;html=1;entryX=0;entryY=0.5;entryDx=0;entryDy=0;endArrow=block;endFill=1;exitX=1;exitY=0.5;exitDx=0;exitDy=0;fontFamily=Times New Roman;" edge="1" parent="1" source="46FaGzGUhxHe82L_dMfi-17" target="46FaGzGUhxHe82L_dMfi-18">
          <mxGeometry relative="1" as="geometry" />
        </mxCell>
        <mxCell id="46FaGzGUhxHe82L_dMfi-17" value="&lt;span style=&quot;font-size: 14px;&quot;&gt;Host&lt;/span&gt;" style="rounded=0;whiteSpace=wrap;html=1;fontFamily=Times New Roman;" vertex="1" parent="1">
          <mxGeometry x="525" y="181" width="70" height="20" as="geometry" />
        </mxCell>
        <mxCell id="46FaGzGUhxHe82L_dMfi-18" value="&lt;span style=&quot;font-size: 14px;&quot;&gt;GPU&lt;/span&gt;" style="rounded=0;whiteSpace=wrap;html=1;fontFamily=Times New Roman;" vertex="1" parent="1">
          <mxGeometry x="661" y="181" width="70" height="20" as="geometry" />
        </mxCell>
        <mxCell id="46FaGzGUhxHe82L_dMfi-20" value="&lt;font style=&quot;&quot;&gt;&lt;span style=&quot;font-size: 14px; font-family: &amp;quot;Times New Roman&amp;quot;; text-wrap: wrap; background-color: rgb(251, 251, 251);&quot;&gt;G&lt;/span&gt;&lt;sub style=&quot;font-family: &amp;quot;Times New Roman&amp;quot;; text-wrap: wrap; background-color: rgb(251, 251, 251);&quot;&gt;&lt;font style=&quot;font-size: 10px;&quot;&gt;N+1&lt;/font&gt;&lt;/sub&gt;&lt;/font&gt;" style="edgeLabel;html=1;align=center;verticalAlign=middle;resizable=0;points=[];" vertex="1" connectable="0" parent="1">
          <mxGeometry x="625.9992307692307" y="190" as="geometry" />
        </mxCell>
      </root>
    </mxGraphModel>
  </diagram>
</mxfile>
